<?xml version="1.0" standalone="no"?><!DOCTYPE svg PUBLIC "-//W3C//DTD SVG 1.1//EN" "http://www.w3.org/Graphics/SVG/1.1/DTD/svg11.dtd"><svg t="1550552763965" class="icon" style="" viewBox="0 0 1229 1024" version="1.1" xmlns="http://www.w3.org/2000/svg" p-id="6142" xmlns:xlink="http://www.w3.org/1999/xlink" width="307.25" height="256"><defs><style type="text/css"></style></defs><path d="M1092.266667 0 136.533333 0C61.44 0 0 61.44 0 136.533333l0 750.933333c0 75.093333 61.44 136.533333 136.533333 136.533333l955.733333 0c75.093333 0 136.533333-61.44 136.533333-136.533333L1228.8 136.533333C1228.8 61.44 1167.36 0 1092.266667 0zM1160.533333 887.466667c0 37.546667-30.72 68.266667-68.266667 68.266667L136.533333 955.733333c-37.546667 0-68.266667-30.72-68.266667-68.266667l0-27.306667c0-37.546667 27.306667-85.333333 58.026667-105.813333l235.52-150.186667c30.72-20.48 81.92-20.48 112.64 3.413333l64.853333 47.786667c30.72 20.48 81.92 20.48 112.64 0l187.733333-228.693333c30.72-20.48 81.92-20.48 112.64 0l150.186667 105.813333c30.72 20.48 54.613333 71.68 54.613333 109.226667L1157.12 887.466667zM1160.533333 491.52c-6.826667-3.413333-10.24-10.24-17.066667-13.653333l-150.186667-105.813333c-54.613333-37.546667-136.533333-37.546667-191.146667 0L614.4 597.333333c-6.826667 6.826667-27.306667 6.826667-34.133333 0l-64.853333-47.786667c-54.613333-37.546667-133.12-40.96-187.733333-3.413333l-235.52 150.186667c-6.826667 3.413333-13.653333 10.24-20.48 17.066667L71.68 136.533333c0-37.546667 30.72-68.266667 68.266667-68.266667l955.733333 0c37.546667 0 68.266667 30.72 68.266667 68.266667L1163.946667 491.52z" p-id="6143"></path><path d="M273.066667 204.8c-75.093333 0-136.533333 61.44-136.533333 136.533333 0 75.093333 61.44 136.533333 136.533333 136.533333s136.533333-61.44 136.533333-136.533333C409.6 266.24 348.16 204.8 273.066667 204.8zM273.066667 409.6c-37.546667 0-68.266667-30.72-68.266667-68.266667s30.72-68.266667 68.266667-68.266667 68.266667 30.72 68.266667 68.266667S310.613333 409.6 273.066667 409.6z" p-id="6144"></path></svg>